<svg width="360" height="5631" viewBox="0 0 360 5631" fill="none" xmlns="http://www.w3.org/2000/svg">
<g clip-path="url(#clip0_72_85)">
<rect width="360" height="5631" fill="white"/>
<rect y="2684" width="360" height="433" fill="url(#paint0_linear_72_85)"/>
<path d="M372.649 3084.73C372.649 3084.73 371.027 3095.59 305.189 3089.23C239.351 3082.87 186.486 3047.65 104.27 3084.73C22.0541 3121.81 -18 3105.83 -18 3105.83L-9.89189 3153L378 3144.47" fill="white"/>
<path d="M-9.87838 2732.17C-9.87838 2732.17 -8.32637 2717.35 54.6851 2726.03C117.697 2734.71 168.292 2782.78 246.979 2732.17C325.665 2681.56 364 2703.37 364 2703.37L356.24 2639L-15 2650.65" fill="white"/>
<rect x="360" y="1306" width="360" height="991" transform="rotate(-180 360 1306)" fill="url(#paint1_linear_72_85)"/>
<path d="M385 369.5C385 369.5 381.182 323.728 318.5 332.5C255.818 341.272 211 405 88.5 345C10.2252 293.863 -70 360.931 -70 360.931V310L365 310" fill="white"/>
<path d="M361.959 1270.2C361.959 1270.2 360.432 1278.12 298.418 1273.48C236.404 1268.84 186.61 1243.15 109.169 1270.2C31.7277 1297.25 -5.99999 1285.59 -5.99999 1285.59L1.63719 1320L367 1313.78" fill="white"/>
<rect x="-32" y="1638" width="423" height="241" fill="url(#paint2_linear_72_85)"/>
<path d="M-0.959457 1672.03C-0.959457 1672.03 0.567982 1662.95 62.5819 1668.27C124.596 1673.58 174.39 1703 251.831 1672.03C329.272 1641.05 367 1654.4 367 1654.4L359.363 1615L-5.99999 1622.13" fill="white"/>
</g>
<defs>
<linearGradient id="paint0_linear_72_85" x1="198" y1="2615.84" x2="227.37" y2="3382.55" gradientUnits="userSpaceOnUse">
<stop stop-color="#E3802F"/>
<stop offset="1" stop-color="#7C3C09"/>
</linearGradient>
<linearGradient id="paint1_linear_72_85" x1="569.04" y1="1075.87" x2="996.1" y2="2681.36" gradientUnits="userSpaceOnUse">
<stop offset="0.0230714" stop-color="#D27930"/>
<stop offset="0.661385" stop-color="#703303"/>
</linearGradient>
<linearGradient id="paint2_linear_72_85" x1="192.472" y1="1653.47" x2="218.108" y2="1918.16" gradientUnits="userSpaceOnUse">
<stop stop-color="#FF9139"/>
<stop offset="1" stop-color="#6C3203"/>
</linearGradient>
<clipPath id="clip0_72_85">
<rect width="360" height="5631" fill="white"/>
</clipPath>
</defs>
</svg>
